<svg width="48" height="48" viewBox="0 0 48 48" fill="none" xmlns="http://www.w3.org/2000/svg">
<g filter="url(#filter0_b_1_69)">
<circle opacity="0.1" cx="24" cy="24" r="24" fill="white"/>
<g clip-path="url(#clip0_1_69)">
<path d="M30.9308 17.7431C29.6558 17.1681 28.2892 16.7431 26.86 16.5015C26.8473 16.499 26.8341 16.5006 26.8223 16.506C26.8105 16.5114 26.8007 16.5203 26.7942 16.5315C26.6192 16.839 26.4242 17.2398 26.2875 17.5565C24.7718 17.33 23.2308 17.33 21.715 17.5565C21.5628 17.2055 21.3911 16.8633 21.2008 16.5315C21.1944 16.5201 21.1846 16.511 21.1729 16.5054C21.1611 16.4997 21.1479 16.4978 21.135 16.4998C19.7067 16.7415 18.34 17.1665 17.0642 17.7423C17.0532 17.7469 17.0439 17.7548 17.0375 17.7648C14.4442 21.5773 13.7333 25.2956 14.0825 28.9673C14.0835 28.9763 14.0863 28.985 14.0907 28.9929C14.0951 29.0008 14.1011 29.0077 14.1083 29.0131C15.622 30.1152 17.3103 30.9547 19.1025 31.4965C19.115 31.5003 19.1284 31.5003 19.1408 31.4965C19.1533 31.4926 19.1644 31.485 19.1725 31.4748C19.5575 30.9581 19.9008 30.4123 20.1942 29.839C20.2117 29.8056 20.195 29.7656 20.16 29.7523C19.6217 29.5496 19.1001 29.3049 18.6 29.0206C18.591 29.0155 18.5834 29.0082 18.578 28.9995C18.5725 28.9907 18.5693 28.9807 18.5686 28.9704C18.568 28.96 18.5699 28.9497 18.5742 28.9403C18.5785 28.9309 18.5851 28.9227 18.5933 28.9165C18.6983 28.839 18.8033 28.7581 18.9033 28.6773C18.9123 28.67 18.9232 28.6654 18.9347 28.6639C18.9461 28.6625 18.9578 28.6642 18.9683 28.669C22.2408 30.139 25.785 30.139 29.0192 28.669C29.0297 28.6639 29.0415 28.662 29.0532 28.6633C29.0648 28.6646 29.0758 28.6692 29.085 28.6765C29.185 28.7581 29.2892 28.839 29.395 28.9165C29.4033 28.9226 29.41 28.9307 29.4145 28.94C29.4189 28.9493 29.421 28.9596 29.4205 28.9699C29.42 28.9802 29.417 28.9903 29.4116 28.9991C29.4063 29.008 29.3989 29.0154 29.39 29.0206C28.8917 29.3073 28.3733 29.5498 27.8292 29.7515C27.8208 29.7545 27.8132 29.7593 27.8068 29.7655C27.8005 29.7717 27.7955 29.7792 27.7923 29.7875C27.789 29.7958 27.7876 29.8047 27.7881 29.8135C27.7886 29.8224 27.7909 29.8311 27.795 29.839C28.095 30.4115 28.4383 30.9565 28.8158 31.474C28.8237 31.4846 28.8346 31.4925 28.8471 31.4967C28.8597 31.5009 28.8732 31.5011 28.8858 31.4973C30.6811 30.957 32.3722 30.1171 33.8875 29.0131C33.8949 29.008 33.9011 29.0013 33.9057 28.9935C33.9103 28.9858 33.9132 28.9771 33.9142 28.9681C34.3308 24.7231 33.2158 21.0348 30.9567 17.7665C30.9511 17.7559 30.942 17.7476 30.9308 17.7431ZM20.6833 26.7315C19.6983 26.7315 18.8858 25.8406 18.8858 24.7481C18.8858 23.6548 19.6825 22.7648 20.6833 22.7648C21.6917 22.7648 22.4967 23.6623 22.4808 24.7481C22.4808 25.8415 21.6842 26.7315 20.6833 26.7315ZM27.3292 26.7315C26.3433 26.7315 25.5317 25.8406 25.5317 24.7481C25.5317 23.6548 26.3275 22.7648 27.3292 22.7648C28.3375 22.7648 29.1425 23.6623 29.1267 24.7481C29.1267 25.8415 28.3383 26.7315 27.3292 26.7315Z" fill="white"/>
</g>
</g>
<defs>
<filter id="filter0_b_1_69" x="-4" y="-4" width="56" height="56" filterUnits="userSpaceOnUse" color-interpolation-filters="sRGB">
<feFlood flood-opacity="0" result="BackgroundImageFix"/>
<feGaussianBlur in="BackgroundImageFix" stdDeviation="2"/>
<feComposite in2="SourceAlpha" operator="in" result="effect1_backgroundBlur_1_69"/>
<feBlend mode="normal" in="SourceGraphic" in2="effect1_backgroundBlur_1_69" result="shape"/>
</filter>
<clipPath id="clip0_1_69">
<rect width="20" height="20" fill="white" transform="translate(14 14)"/>
</clipPath>
</defs>
</svg>
