<svg width="48" height="48" viewBox="0 0 48 48" fill="none" xmlns="http://www.w3.org/2000/svg">
<g filter="url(#filter0_b_1_445)">
<circle opacity="0.1" cx="24" cy="24" r="24" fill="white"/>
<g clip-path="url(#clip0_1_445)">
<path d="M24 14C18.478 14 14 18.478 14 24C14 29.522 18.478 34 24 34C29.522 34 34 29.522 34 24C34 18.478 29.524 14 24 14ZM18.934 24.336L18.976 24.268L21.578 20.198C21.616 20.14 21.706 20.146 21.734 20.21C22.168 21.184 22.544 22.396 22.368 23.15C22.294 23.46 22.088 23.88 21.856 24.268C21.826 24.324 21.794 24.38 21.758 24.434C21.742 24.458 21.714 24.472 21.684 24.472H19.01C18.938 24.472 18.896 24.394 18.934 24.336ZM30.528 25.736C30.528 25.774 30.506 25.806 30.474 25.82C30.272 25.906 29.582 26.224 29.296 26.622C28.564 27.64 28.006 29.096 26.756 29.096H21.544C19.696 29.096 18.2 27.594 18.2 25.74V25.68C18.2 25.632 18.24 25.592 18.29 25.592H21.194C21.252 25.592 21.294 25.644 21.29 25.702C21.268 25.89 21.304 26.084 21.394 26.26C21.566 26.61 21.924 26.828 22.31 26.828H23.748V25.706H22.326C22.254 25.706 22.21 25.622 22.252 25.562C22.268 25.538 22.284 25.514 22.304 25.486C22.438 25.294 22.63 24.998 22.822 24.66C22.952 24.432 23.078 24.188 23.18 23.944C23.2 23.9 23.216 23.854 23.234 23.81C23.262 23.732 23.29 23.658 23.31 23.586C23.33 23.524 23.348 23.46 23.364 23.4C23.412 23.192 23.432 22.972 23.432 22.744C23.432 22.654 23.428 22.56 23.42 22.472C23.416 22.374 23.404 22.276 23.392 22.178C23.384 22.092 23.368 22.006 23.352 21.918C23.33 21.788 23.302 21.658 23.27 21.528L23.258 21.478C23.234 21.388 23.212 21.304 23.184 21.214C23.102 20.934 23.01 20.66 22.91 20.404C22.874 20.302 22.834 20.204 22.792 20.108C22.732 19.96 22.67 19.826 22.614 19.7C22.584 19.642 22.56 19.59 22.536 19.536C22.508 19.476 22.48 19.416 22.45 19.358C22.43 19.314 22.406 19.272 22.39 19.232L22.214 18.908C22.19 18.864 22.23 18.81 22.278 18.824L23.378 19.122H23.382C23.384 19.122 23.384 19.122 23.386 19.122L23.53 19.164L23.69 19.208L23.748 19.224V18.572C23.748 18.256 24 18 24.314 18C24.47 18 24.612 18.064 24.712 18.168C24.814 18.272 24.878 18.414 24.878 18.572V19.542L24.996 19.574C25.004 19.578 25.014 19.582 25.022 19.588C25.05 19.608 25.092 19.64 25.144 19.68C25.186 19.712 25.23 19.752 25.282 19.794C25.388 19.88 25.516 19.99 25.654 20.116C25.69 20.148 25.726 20.18 25.76 20.214C25.938 20.38 26.138 20.574 26.33 20.79C26.384 20.852 26.436 20.912 26.49 20.978C26.542 21.044 26.6 21.108 26.648 21.172C26.714 21.258 26.782 21.348 26.844 21.442C26.872 21.486 26.906 21.532 26.932 21.576C27.012 21.694 27.08 21.816 27.146 21.938C27.174 21.994 27.202 22.056 27.226 22.116C27.3 22.28 27.358 22.446 27.394 22.614C27.406 22.65 27.414 22.688 27.418 22.724V22.732C27.43 22.78 27.434 22.832 27.438 22.886C27.454 23.056 27.446 23.228 27.41 23.4C27.394 23.472 27.374 23.54 27.35 23.614C27.324 23.684 27.3 23.756 27.268 23.826C27.206 23.968 27.134 24.112 27.048 24.244C27.02 24.294 26.986 24.346 26.954 24.396C26.918 24.448 26.88 24.498 26.848 24.546C26.802 24.608 26.754 24.672 26.704 24.73C26.66 24.79 26.616 24.85 26.566 24.904C26.498 24.986 26.432 25.062 26.362 25.136C26.322 25.184 26.278 25.234 26.232 25.278C26.188 25.328 26.142 25.372 26.102 25.412C26.032 25.482 25.976 25.534 25.928 25.58L25.814 25.682C25.798 25.698 25.776 25.706 25.754 25.706H24.878V26.828H25.98C26.226 26.828 26.46 26.742 26.65 26.58C26.714 26.524 26.996 26.28 27.33 25.912C27.342 25.898 27.356 25.89 27.372 25.886L30.414 25.006C30.472 24.99 30.528 25.032 30.528 25.092V25.736Z" fill="white"/>
</g>
</g>
<defs>
<filter id="filter0_b_1_445" x="-4" y="-4" width="56" height="56" filterUnits="userSpaceOnUse" color-interpolation-filters="sRGB">
<feFlood flood-opacity="0" result="BackgroundImageFix"/>
<feGaussianBlur in="BackgroundImageFix" stdDeviation="2"/>
<feComposite in2="SourceAlpha" operator="in" result="effect1_backgroundBlur_1_445"/>
<feBlend mode="normal" in="SourceGraphic" in2="effect1_backgroundBlur_1_445" result="shape"/>
</filter>
<clipPath id="clip0_1_445">
<rect width="20" height="20" fill="white" transform="translate(14 14)"/>
</clipPath>
</defs>
</svg>
