<svg width="48" height="48" viewBox="0 0 48 48" fill="none" xmlns="http://www.w3.org/2000/svg">
<g filter="url(#filter0_b_1_440)">
<circle opacity="0.1" cx="24" cy="24" r="24" fill="white"/>
<path d="M33.7026 18.1141C33.0067 18.4225 32.2592 18.6308 31.4734 18.725C32.2842 18.2398 32.8908 17.4762 33.1801 16.5766C32.4183 17.0291 31.5845 17.3476 30.7151 17.5183C30.1304 16.894 29.3559 16.4803 28.512 16.3412C27.668 16.2022 26.8018 16.3456 26.0477 16.7494C25.2937 17.1531 24.694 17.7945 24.3418 18.5739C23.9897 19.3534 23.9047 20.2273 24.1001 21.06C22.5565 20.9825 21.0464 20.5813 19.6679 19.8824C18.2894 19.1835 17.0733 18.2026 16.0984 17.0033C15.7651 17.5783 15.5734 18.245 15.5734 18.955C15.573 19.5941 15.7304 20.2235 16.0316 20.7873C16.3328 21.351 16.7685 21.8317 17.3001 22.1866C16.6836 22.167 16.0808 22.0005 15.5417 21.7008V21.7508C15.5417 22.6473 15.8517 23.5161 16.4194 24.21C16.987 24.9038 17.7772 25.3799 18.6559 25.5575C18.084 25.7122 17.4845 25.735 16.9026 25.6241C17.1505 26.3955 17.6334 27.07 18.2837 27.5533C18.934 28.0365 19.7191 28.3043 20.5292 28.3191C19.1541 29.3987 17.4558 29.9842 15.7076 29.9816C15.3979 29.9817 15.0884 29.9636 14.7809 29.9275C16.5554 31.0685 18.6212 31.674 20.7309 31.6716C27.8726 31.6716 31.7767 25.7566 31.7767 20.6266C31.7767 20.46 31.7726 20.2916 31.7651 20.125C32.5245 19.5758 33.18 18.8957 33.7009 18.1166L33.7026 18.1141Z" fill="white"/>
</g>
<defs>
<filter id="filter0_b_1_440" x="-4" y="-4" width="56" height="56" filterUnits="userSpaceOnUse" color-interpolation-filters="sRGB">
<feFlood flood-opacity="0" result="BackgroundImageFix"/>
<feGaussianBlur in="BackgroundImageFix" stdDeviation="2"/>
<feComposite in2="SourceAlpha" operator="in" result="effect1_backgroundBlur_1_440"/>
<feBlend mode="normal" in="SourceGraphic" in2="effect1_backgroundBlur_1_440" result="shape"/>
</filter>
</defs>
</svg>
